Coordinates
version=1
nRows=65
nColumns=12
inDegrees=yes

Units are S.I. units (second, meters, Newtons, ...)
Angles are in degrees

endheader
time	SC_y	SC_z	SC_x	AC_y	AC_z	AC_x	GH_y	GH_z	GH_yy	EL_x	PS_y
       0.0              -49.98          14.15          27.26           61.0          -12.8         -8.095         -150.2          15.33          157.7          73.29           31.5
   0.04414              -49.98          14.15          27.26          60.99          -12.8         -8.094         -150.2          15.34          157.6          73.29           31.5
   0.08828              -49.98          14.15          27.26          60.99          -12.8         -8.092         -150.2          15.34          157.6          73.29           31.5
    0.1324              -49.98          14.15          27.26          60.99          -12.8          -8.09         -150.2          15.34          157.6          73.29           31.5
    0.1766              -49.97          14.15          27.26          60.98          -12.8         -8.088         -150.1          15.35          157.5           73.3           31.5
    0.2207              -49.97          14.15          27.26          60.98          -12.8         -8.086         -150.1          15.35          157.5           73.3           31.5
    0.2648              -49.97          14.15          27.26          60.97          -12.8         -8.084         -150.1          15.35          157.4           73.3           31.5
     0.309              -49.97          14.15          27.26          60.97          -12.8         -8.082         -150.1          15.36          157.4           73.3           31.5
    0.3531              -49.97          14.15          27.26          60.96          -12.8          -8.08         -150.0          15.36          157.4          73.31           31.5
    0.3973              -49.96          14.16          27.26          60.96          -12.8         -8.077         -150.0          15.37          157.3          73.31           31.5
    0.4414              -49.96          14.16          27.26          60.95          -12.8         -8.074         -149.9          15.37          157.2          73.31          31.51
    0.4856              -49.96          14.16          27.25          60.95          -12.8         -8.071         -149.9          15.38          157.2          73.31          31.51
    0.5297              -49.96          14.16          27.25          60.94          -12.8         -8.068         -149.9          15.39          157.1          73.32          31.51
    0.5738              -49.95          14.16          27.25          60.93          -12.8         -8.065         -149.8          15.39          157.0          73.32          31.51
     0.618              -49.95          14.16          27.25          60.92          -12.8         -8.061         -149.8           15.4          157.0          73.32          31.51
    0.6621              -49.94          14.17          27.25          60.92         -12.81         -8.057         -149.7          15.41          156.9          73.33          31.51
    0.7063              -49.94          14.17          27.25          60.91         -12.81         -8.052         -149.7          15.42          156.8          73.33          31.51
    0.7504              -49.94          14.17          27.25           60.9         -12.81         -8.048         -149.6          15.43          156.7          73.34          31.51
    0.7945              -49.93          14.17          27.24          60.88         -12.81         -8.042         -149.5          15.44          156.6          73.34          31.52
    0.8387              -49.93          14.18          27.24          60.87         -12.81         -8.037         -149.4          15.45          156.5          73.35          31.52
    0.8828              -49.92          14.18          27.24          60.86         -12.81          -8.03         -149.4          15.47          156.3          73.36          31.52
     0.927              -49.91          14.18          27.24          60.84         -12.81         -8.023         -149.3          15.48          156.2          73.36          31.52
    0.9711               -49.9          14.19          27.23          60.83         -12.81         -8.016         -149.2           15.5          156.0          73.37          31.52
     1.015               -49.9          14.19          27.23          60.81         -12.81         -8.007         -149.1          15.51          155.9          73.38          31.53
     1.059              -49.89           14.2          27.23          60.79         -12.81         -7.998         -148.9          15.53          155.7          73.39          31.53
     1.104              -49.88           14.2          27.22          60.77         -12.81         -7.987         -148.8          15.55          155.5           73.4          31.53
     1.148              -49.87          14.21          27.22          60.74         -12.82         -7.975         -148.6          15.58          155.2          73.41          31.54
     1.192              -49.85          14.22          27.21          60.71         -12.82         -7.962         -148.5          15.61          154.9          73.43          31.54
     1.236              -49.84          14.23           27.2          60.68         -12.82         -7.947         -148.3          15.64          154.6          73.44          31.55
      1.28              -49.82          14.24           27.2          60.65         -12.82          -7.93         -148.0          15.67          154.3          73.46          31.55
     1.324               -49.8          14.25          27.19           60.6         -12.83         -7.911         -147.8          15.71          153.9          73.48          31.56
     1.368              -49.78          14.26          27.18          60.56         -12.83         -7.888         -147.5          15.76          153.4           73.5          31.57
     1.413              -49.76          14.27          27.17           60.5         -12.83         -7.863         -147.1          15.81          152.9          73.53          31.57
     1.457              -49.73          14.29          27.16          60.44         -12.84         -7.833         -146.7          15.87          152.3          73.56          31.58
     1.501              -49.69          14.31          27.14          60.36         -12.84         -7.798         -146.3          15.95          151.6           73.6          31.59
     1.545              -49.65          14.33          27.13          60.28         -12.85         -7.756         -145.7          16.03          150.7          73.64          31.61
     1.589              -49.61          14.36          27.11          60.17         -12.85         -7.707         -145.1          16.13          149.7          73.69          31.62
     1.633              -49.55          14.39          27.08          60.05         -12.86         -7.648         -144.3          16.25          148.5          73.75          31.64
     1.677              -49.48          14.43          27.05          59.89         -12.87         -7.577         -143.3           16.4          147.0          73.82          31.67
     1.722               -49.4          14.47          27.02          59.71         -12.88          -7.49         -142.2          16.58          145.2          73.91          31.69
     1.766              -49.29          14.53          26.98          59.48          -12.9         -7.383         -140.8           16.8          143.0          74.02          31.73
      1.81              -49.17           14.6          26.92           59.2         -12.92         -7.249         -139.0          17.08          140.3          74.16          31.77
     1.854               -49.0           14.7          26.85          58.84         -12.94          -7.08         -136.7          17.43          136.8          74.34          31.82
     1.898               -48.8          14.81          26.77          58.38         -12.97         -6.866         -133.9          17.87          132.4          74.56          31.89
     1.942              -48.53          14.96          26.65           57.8         -13.01         -6.591         -130.2          18.44          126.8          74.84          31.98
     1.986              -48.19          15.15          26.51          57.05         -13.06         -6.239         -125.6          19.16          119.5           75.2          32.09
     2.031              -47.76          15.39          26.33          56.09         -13.12         -5.789         -119.6          20.09          110.3          75.67          32.24
     2.075              -47.21           15.7           26.1          54.89          -13.2         -5.224         -112.1          21.26          98.68          76.25          32.42
     2.119              -46.55          16.07          25.82          53.42          -13.3         -4.535         -102.9          22.68          84.52          76.96          32.64
     2.163              -45.78          16.51          25.49          51.72         -13.41         -3.736         -92.31          24.33           68.1          77.79           32.9
     2.207              -44.95          16.98          25.14          49.89         -13.53         -2.871         -80.82          26.12          50.33          78.68          33.18
     2.251              -44.11          17.44          24.79          48.05         -13.66         -2.006         -69.33           27.9          32.55          79.57          33.45
     2.295              -43.34          17.88          24.47          46.35         -13.77         -1.207         -58.72          29.55          16.14           80.4          33.71
     2.339              -42.68          18.25          24.19          44.88         -13.86        -0.5174         -49.56          30.98          1.979          81.11          33.93
     2.384              -42.14          18.56          23.96          43.68         -13.94        0.04815         -42.05          32.14         -9.641          81.69          34.11
     2.428               -41.7           18.8          23.78          42.72         -14.01          0.498         -36.07          33.07         -18.88          82.16          34.26
     2.472              -41.36          18.99          23.63          41.97         -14.06         0.8501         -31.39           33.8         -26.12          82.52          34.37
     2.516               -41.1          19.14          23.52          41.39          -14.1          1.125         -27.75          34.37         -31.76           82.8          34.46
      2.56              -40.89          19.26          23.44          40.93         -14.13          1.339          -24.9          34.81         -36.16          83.02          34.53
     2.604              -40.73          19.35          23.37          40.57         -14.15          1.508         -22.66          35.16         -39.63           83.2          34.58
     2.648               -40.6          19.42          23.31          40.29         -14.17          1.641         -20.88          35.43         -42.38          83.33          34.62
     2.693               -40.5          19.48          23.27          40.06         -14.18          1.749         -19.46          35.66         -44.58          83.45          34.66
     2.737              -40.41          19.53          23.23          39.88          -14.2          1.836          -18.3          35.83         -46.37          83.54          34.69
     2.781              -40.34          19.56           23.2          39.72         -14.21          1.907         -17.36          35.98         -47.83          83.61          34.71
     2.825              -40.29           19.6          23.18           39.6         -14.21          1.966         -16.57           36.1         -49.04          83.67          34.73
